<svg xmlns="http://www.w3.org/2000/svg" width="12" height="12" fill="none"><g fill="#4295E4" clip-path="url(#a)"><path d="M11 4.5H1a.25.25 0 0 0-.25.25v7c0 .138.112.25.25.25h10a.25.25 0 0 0 .25-.25v-7A.25.25 0 0 0 11 4.5Zm-.25 7h-9.5V5h9.5v6.5Z"/><path d="M11.5 2.5H.5a.25.25 0 0 0-.25.25v2c0 .138.112.25.25.25h11a.25.25 0 0 0 .25-.25v-2a.25.25 0 0 0-.25-.25Zm-.25 2H.75V3h10.5v1.5Z"/><path d="M6 2.5a.25.25 0 0 0-.25.25v9a.25.25 0 0 0 .5 0v-9A.25.25 0 0 0 6 2.5Z"/><path d="M6.255 2.691C6 1.485 4.465.192 3.444.019a1.001 1.001 0 0 0-.967 1.615l.004.006c.743.949 3.215 1.312 3.495 1.35a.25.25 0 0 0 .279-.3ZM2.868 1.323A.492.492 0 0 1 2.75 1a.5.5 0 0 1 .605-.49c.75.128 1.881 1.035 2.287 1.92-.87-.161-2.34-.536-2.773-1.107Z"/><path d="M8.75 0a.985.985 0 0 0-.187.018C7.535.192 6.002 1.485 5.745 2.69a.25.25 0 0 0 .278.3c.28-.039 2.752-.402 3.495-1.35l.005-.007A1.001 1.001 0 0 0 8.75 0Zm.396 1.305-.015.018c-.432.571-1.902.946-2.773 1.107.407-.886 1.54-1.793 2.295-1.92a.5.5 0 0 1 .493.796Z"/></g><defs><clipPath id="a"><path fill="#fff" d="M0 0h12v12H0z"/></clipPath></defs></svg>